<?xml version="1.0" encoding="UTF-8"?><svg xmlns="http://www.w3.org/2000/svg" viewBox="0 0 36 36">
 <g id="change1_1"><path d="m36 12c0-4.252-3.141-7-8-7-0.553 0-1 0.448-1 1s0.447 1 1 1c1.804 0 6 0.487 6 5 0 2.881-1.851 4.172-4.054 4.692-0.164-0.073-0.328-0.147-0.509-0.192-3.499-0.875-4.437 0.5-10.437 0.5-4.165 0-5.439-4.407-6.832-7.106-0.366-2.046-1.367-5.894-2.168-5.894-0.61 0-1.405 2.027-1.933 4.062-0.657-1.535-1.514-3.062-2.067-3.062-0.711 0-1.42 2.525-1.771 4.706-1.867 1.275-3.229 3.121-3.229 5.294 0 3 7 5 7 5 2.118 1.104 2.743 2.767 3.305 4.276 2.062 6.384 1.814 11.724 3.195 11.724s2.5-3.357 2.5-7.5c0-0.212-0.005-0.42-0.011-0.627 3.154-0.101 6.755-1.075 9.79-0.293 1.36 4.493 1.687 8.42 2.721 8.42 0.958 0 1.79-3.784 2.209-7.484 0.031-0.141 0.054-0.297 0.054-0.492l0.01-0.108c0.032-0.319 0.062-0.636 0.088-0.948l0.515-5.592c0-1.112-0.254-2.217-0.754-3.103 2.827-1.052 4.378-3.214 4.378-6.273z" fill="#C1694F"/></g>
 <g id="change2_1"><circle cx="7" cy="13" fill="#292F33" r="1"/></g>
 <g id="change2_2"><path d="m3 13.375c-1 0.625-1 2.625-1.5 2.625s-1.5-1.176-1.5-2.625c0-1.45 4.229-0.769 3 0z" fill="#292F33"/></g>
 <g id="change3_1"><path d="m3 16.5c-0.184 0-0.36-0.101-0.448-0.276-0.124-0.247-0.023-0.547 0.224-0.671 2.141-1.07 6.174-0.08 6.345-0.038 0.268 0.067 0.431 0.338 0.364 0.606-0.067 0.267-0.339 0.427-0.606 0.364-0.039-0.01-3.847-0.942-5.655-0.038-0.072 0.036-0.148 0.053-0.224 0.053z" fill="#662113"/></g>
 <g id="change3_2"><path d="m8 18.5c-0.095 0-0.191-0.027-0.277-0.084-0.029-0.02-2.899-1.916-4.723-1.916-0.276 0-0.5-0.224-0.5-0.5s0.224-0.5 0.5-0.5c2.127 0 5.15 1.999 5.277 2.084 0.229 0.153 0.292 0.463 0.139 0.693-0.096 0.145-0.255 0.223-0.416 0.223z" fill="#662113"/></g>
</svg>