<?xml version="1.0" encoding="UTF-8"?><svg xmlns="http://www.w3.org/2000/svg" viewBox="0 0 36 36">
 <g id="change1_1"><path d="m29 15.889s6 0 4-6c-1-3 1-1 2 1s2 8-5 7-1-2-1-2z" fill="#662113"/></g>
 <g id="change2_1"><path d="m32.958 19.841c0.027-0.314 0.042-0.597 0.042-0.841 0-0.658-0.062-1-0.171-1.123-0.897-2.946-5.523-2.896-10.854-2.879-2.986-0.023-4.975-4.1-4.975-4.998 0-5-4.848-6.182-7.5-3-2.5 3-7.5-0.038-7.5 3 0 5 3.358 8 7.5 8 0.648 0 1.736-0.149 3.01-0.381 0.941 1.647 1.39 3.881 1.49 4.381 0.024 0.119 0.05 0.234 0.075 0.353 0.435 4.62 2.681 13.647 3.925 13.647 1.07 0 1.681-2.484 1.902-5.4 0.886 0.259 1.91 0.4 3.098 0.4 1.112 0 2.137-0.247 3.078-0.659 0.205 3.027 0.82 5.659 1.922 5.659 1.292 0 4.544-11.5 4.956-16.145l0.002-0.014z" fill="#D99E82"/></g>
 <g id="change1_2"><path d="m4 10.5c0 0.829-1.171 1.5-2 1.5s-1.5-1.171-1.5-2 0.671-1 1.5-1c2 0 2 0.671 2 1.5zm14 1.5c0 3.038-1.344 3.5-3 3.5-1.657 0-3-0.462-3-3.5s0.343-7 2-7 4 3.962 4 7z" fill="#662113"/></g>
 <g id="change3_1"><circle cx="10" cy="9" fill="#292F33" r="1"/></g>
 <g id="change4_1"><ellipse cx="28" cy="19.5" fill="#C1694F" rx="3" ry="2.5"/></g>
 <g id="change4_2"><circle cx="22.5" cy="18.5" fill="#C1694F" r="1.5"/></g>
 <g id="change4_3"><circle cx="24.5" cy="23.5" fill="#C1694F" r="1.5"/></g>
</svg>