<?xml version="1.0" encoding="utf-8"?>
<!-- Generator: Adobe Illustrator 18.1.1, SVG Export Plug-In . SVG Version: 6.00 Build 0)  -->
<!DOCTYPE svg PUBLIC "-//W3C//DTD SVG 1.1//EN" "http://www.w3.org/Graphics/SVG/1.1/DTD/svg11.dtd">
<svg version="1.1" xmlns="http://www.w3.org/2000/svg" xmlns:xlink="http://www.w3.org/1999/xlink" x="0px" y="0px"
	 viewBox="0 0 358 412" enable-background="new 0 0 358 412" xml:space="preserve">
<g id="Change1">
	<path fill="#A34323" d="M251.3,323.4c0,0,29.2-9.4,45.4-31.3c16.2-21.9,1.6-95.1,9.8-110.6c8.2-15.5,51.1-8.6,43-30.5
		c-8.1-21.9-47.8-20.7-68.9,11.2c-20,30.4-1.6,84.5-8.1,101.5c-6.5,17.1-47,12.1-47,12.1L251.3,323.4z"/>
</g>
<g id="Change3">
	<path fill="#D56727" d="M172.2,41l21.6-32.2l21.4,54.6c0,0,54.9,232.9,41,288.7c-5.4,21.6-40.7,33.8-73.3,43
		c-1.1,0.4-2.3,5.6-3.4,6c-3,0.8-10.4-3.1-10.4-3.1s-6.8,3.6-9.2,4.2c-6,1.4-2.8-5.1-7.9-3.6c-3.5,1.1-4.1,7.9-14.1,1.6
		c-8.3-5.2-8.5-30.4-8.5-30.4s-0.1,14.9-4,23.6c-2.7,6.1-9.1,7.1-11.9,6.9c-7.4-0.7-17.6,0.1-24.2-2.3c-3-1.1-6.4,2.5-8.3,2.3
		c-5.1-0.6-3.4-13.1-3.4-13.1s-60.3-20-65.9-42.4c-12.5-49.9,30-292.3,30-292.3l7.8-47.7l21.2,33L172.2,41z"/>
</g>
<g id="Change2">
	<path fill="#F3A37F" d="M125.1,179.8c-0.6,0-5.4,4-12,0c-6.5-4-18.8-15.8-17.5-21c1.3-5.2,10.6-21.4,17.5-24.9
		c6.9-3.5,18.6-5.7,28.1,0.2c9.5,5.9,22.2,13.4,18.6,24.8c-3.5,11.4-5.8,13.8-16.4,17.7C132.8,180.4,125.1,179.8,125.1,179.8z"/>
	<path fill="#F3A37F" d="M48.7,38.4c0,0,10.2,3.7,12.8-0.1C64.2,34.6,51,9.4,50.7,12.8S45.1,37.4,48.7,38.4z"/>
	<path fill="#F3A37F" d="M199,41.8c0,0-17.2,4.2-19.7,0.3c-2.5-4,15.2-28.5,15.3-25.2C194.7,20.1,202.7,40.9,199,41.8z"/>
	<path fill="#F3A37F" d="M95.1,82.1c-5.3,4.9-6.4-1.6-12.8-1.1c-6.9,0.4-10.3,7.8-12.7,5.1c-3-3.3-2.7-8.6,5.9-12.2
		C87.4,68.9,100.4,77.2,95.1,82.1z"/>
	<path fill="#F3A37F" d="M160.1,79.9c5.3,4.9,6.4-1.6,12.8-1.1c6.9,0.4,10.3,7.8,12.7,5.1c3-3.3,2.7-8.6-5.9-12.2
		C167.9,66.7,154.9,75,160.1,79.9z"/>
</g>
<g id="Change4">
	<path fill="#F48CB1" d="M61.8,129.5c0.3,3.2-0.7,6-3,8.5c-2.3,2.5-5.2,3.9-8.7,4.2c-3.5,0.3-6.6-0.6-9.3-2.6
		c-2.7-2-4.2-4.7-4.4-7.8c-0.3-3.2,0.7-6,3-8.5c2.3-2.5,5.2-3.9,8.7-4.2c3.5-0.3,6.6,0.6,9.3,2.6C60.1,123.7,61.5,126.3,61.8,129.5z
		"/>
	<path fill="#F48CB1" d="M225.3,129.5c0.3,3.2-0.7,6-3,8.5c-2.3,2.5-5.2,3.9-8.7,4.2c-3.5,0.3-6.6-0.6-9.3-2.6
		c-2.7-2-4.2-4.7-4.4-7.8c-0.3-3.2,0.7-6,3-8.5c2.3-2.5,5.2-3.9,8.7-4.2c3.5-0.3,6.6,0.6,9.3,2.6C223.5,123.7,225,126.3,225.3,129.5
		z"/>
	<path fill="#F48CB1" d="M116.6,122.5c0,0,18-3.9,24.1,0c6.1,3.9-9.7,20.7-14.2,17.3C121.9,136.5,108.1,126.9,116.6,122.5z"/>
</g>
<g id="Layer_1">
	<path fill="#FFFFFF" d="M189.5,104.4c0,4.8-1.7,8.9-5.1,12.2c-3.4,3.4-7.5,5.1-12.2,5.1c-4.8,0-8.9-1.7-12.2-5.1
		c-3.4-3.4-5.1-7.5-5.1-12.2s1.7-8.9,5.1-12.2s7.5-5.1,12.2-5.1c4.8,0,8.9,1.7,12.2,5.1S189.5,99.6,189.5,104.4z"/>
	<path fill="#FFFFFF" d="M102.5,104.4c0,4.8-1.7,8.9-5.1,12.2c-3.4,3.4-7.5,5.1-12.2,5.1c-4.8,0-8.9-1.7-12.2-5.1
		c-3.4-3.4-5.1-7.5-5.1-12.2s1.7-8.9,5.1-12.2c3.4-3.4,7.5-5.1,12.2-5.1c4.8,0,8.9,1.7,12.2,5.1C100.8,95.5,102.5,99.6,102.5,104.4z
		"/>
	<path fill="#231F20" d="M127.3,138.8c0,0,0.8,11,0.2,12.6c-0.6,1.6-7,2.5-10.1,4.4c-3.1,2-11.5,2.8-9.7,4c1.8,1.2,5.9,2.5,9.9,0
		c4-2.5,11.4-6.1,11.4-6.1s8.1,6.5,10.5,7.5c2.5,1.1,3.9,1.4,4.8,0c1-1.4-11-7.5-11-7.5l-3.3-2.3v-12.9L127.3,138.8z"/>
	<path fill="#231F20" d="M110.4,137.9c0-1.4-18.4-3.2-36.2-5.9c-13.1-1.9-31.5-4.5-36.5-4.9c-8.6-0.9-25.4-4.7-25.4-4.7
		c-2.2,3.1,29.2,6.7,36.7,8.2c3.8,0.8,22.1,2.3,36.1,4.6C99.4,137.5,110.4,140.3,110.4,137.9z"/>
	<path fill="#231F20" d="M110.9,142.6c-0.2-1.4-18.6-0.6-36.7-0.8c-13.3-0.1-31.7,0-36.7,0.2c-8.6,0.4-25.8-1.1-25.8-1.1
		c-1.7,3.3,29.8,2.5,37.5,3c3.9,0.3,22.2-0.8,36.4-0.5C100,143.8,111.3,145.1,110.9,142.6z"/>
	<path fill="#231F20" d="M110.7,145.7c-0.4-1.3-18.5,1.7-36.5,3.7c-13.2,1.5-31.6,3.8-36.5,4.7c-8.5,1.4-25.8,2-25.8,2
		c-1.3,3.5,29.9-1.1,37.6-1.6c3.9-0.3,21.9-3.5,36-4.9C99.9,148.1,111.3,148.1,110.7,145.7z"/>
	<path fill="#231F20" d="M140.5,137.6c0-1.4,18.4-3.2,36.2-5.9c13.1-1.9,31.5-4.5,36.5-4.9c8.6-0.9,25.4-4.7,25.4-4.7
		c2.2,3.1-29.2,6.7-36.7,8.2c-3.8,0.8-22.1,2.3-36.1,4.6C151.4,137.2,140.5,140.1,140.5,137.6z"/>
	<path fill="#231F20" d="M139.8,142.3c0.2-1.4,18.6-0.6,36.7-0.8c13.3-0.1,31.7,0,36.7,0.2c8.6,0.4,25.8-1.1,25.8-1.1
		c1.7,3.3-29.8,2.5-37.5,3c-3.9,0.3-22.2-0.8-36.4-0.5C150.8,143.5,139.5,144.7,139.8,142.3z"/>
	<path fill="#231F20" d="M140.1,145.4c0.4-1.3,18.5,1.7,36.5,3.7c13.2,1.5,31.6,3.8,36.5,4.7c8.5,1.4,25.8,2,25.8,2
		c1.3,3.5-29.9-1.1-37.6-1.6c-3.9-0.3-21.9-3.5-36-4.9C150.8,147.9,139.5,147.8,140.1,145.4z"/>
</g>
<g id="Change5">
	<path fill="#231F20" d="M182.8,104.4c0,2.9-1,5.4-3.1,7.5c-2.1,2.1-4.6,3.1-7.5,3.1c-2.9,0-5.4-1-7.5-3.1c-2.1-2.1-3.1-4.6-3.1-7.5
		s1-5.4,3.1-7.5c2.1-2.1,4.6-3.1,7.5-3.1c2.9,0,5.4,1,7.5,3.1C181.8,98.9,182.8,101.4,182.8,104.4z"/>
	<path fill="#231F20" d="M95.8,104.4c0,2.9-1,5.4-3.1,7.5c-2.1,2.1-4.6,3.1-7.5,3.1c-2.9,0-5.4-1-7.5-3.1c-2.1-2.1-3.1-4.6-3.1-7.5
		s1-5.4,3.1-7.5c2.1-2.1,4.6-3.1,7.5-3.1c2.9,0,5.4,1,7.5,3.1C94.8,98.9,95.8,101.4,95.8,104.4z"/>
</g>
<g id="Change1_1_">
	<path fill="#A34323" d="M84,38.5c0,0,8.2,41,16.3,41s3.4-0.7-0.1-10.8c-4.2-12.2-7.8-19.2-7.8-19.2l-2-10.5L84,38.5z"/>
	<path fill="#A34323" d="M100.5,39.2c0,0,8.1,41.5,12.2,41.5c4.2,0,6.1-4.1,3.1-8.8c-3-4.7-6.9-17.5-6.9-21.4c0-4,0-10.7,0-10.7
		L100.5,39.2z"/>
	<path fill="#A34323" d="M119.4,39.7c0,0,0.8,39.7,5,41c4.1,1.2,2.3-20,2.3-21.9c0-1.8-0.8-19.1-0.8-19.1H119.4z"/>
	<path fill="#A34323" d="M164.6,40.7c0,0-8.2,40.2-16.3,40.2s-3.4-0.7,0.1-10.8c4.2-12.2,7.8-19.2,7.8-19.2l2-10.5L164.6,40.7z"/>
	<path fill="#A34323" d="M148.4,40.2c0,0-7.9,40.7-12,40.7s-6.1-4.1-3.1-8.8c3-4.6,6.9-17.5,6.9-21.4c0-4,0-10.7,0-10.7L148.4,40.2z
		"/>
	<path fill="#A34323" d="M74.5,299.4c0,0-5,85.7,0,86.9s4.3,1.1,4.3,1.1s-3.9-32.2-1.7-44.3C79.5,331.1,80.9,295.4,74.5,299.4z"/>
	<path fill="#A34323" d="M128,331.1c0,0,3.4,52.4-1,61.1c-2.3,4.5-5.3,8.9-10.1,9.9c-4.5,0.9-10.7-1.4-10.7-1.4s-3,2.4-10,1.1
		c-6.3-1.2-6.9-3.7-6.9-3.7s-10.2,6.7-12,1.8c-1.8-4.8-2.6-13.4-2.6-13.4l3.9-3.1c0,0,0.3,9.3,2.5,14.2c1.6,3.5,10.1-5.1,10.1-5.1
		s0.4,7.3,8.1,6.1c7.6-1.2,7.9-4.7,7.9-4.7s1.2,6.2,8.4,3.9s10.1,2,9.1-18.5c-1.1-20.5,2.2-57.7,2.2-57.7L128,331.1z"/>
	<path fill="#A34323" d="M184,301.4c0,0,5,85.7,0,86.9c-5,1.2-4.3,1.1-4.3,1.1s3.9-32.2,1.7-44.3C179.2,332.9,177.6,297.3,184,301.4
		z"/>
	<path fill="#A34323" d="M130.5,333c0,0-3.4,52.4,1,61.1c2.3,4.5,5.3,8.9,10.1,9.9c4.5,0.9,10.7-1.4,10.7-1.4s3,2.4,10,1.1
		c6.3-1.2,6.9-3.7,6.9-3.7s10.2,6.7,12,1.8c1.8-4.8,2.6-13.4,2.6-13.4l-3.9-3.1c0,0-0.3,9.3-2.5,14.2c-1.6,3.5-10.1-5.1-10.1-5.1
		s-0.4,7.3-8.1,6.1c-7.7-1.2-7.9-4.7-7.9-4.7s-1.2,6.2-8.4,3.9c-7.1-2.3-10.1,2-9.1-18.5c1.1-20.5-2.2-57.7-2.2-57.7L130.5,333z"/>
</g>
</svg>
